<svg xmlns="http://www.w3.org/2000/svg" xmlns:xlink="http://www.w3.org/1999/xlink" version="1.1" width="3300" height="2200">
 <!--glyph: "", point size: 100.0, font version: "17.1d1e1", template writer version: "65.1"-->
<style>

.hierarchical-1:primary {fill:#262626;}
.SFSymbolsPreview262626 {fill:#262626;}
</style>
 <g id="Notes">
  <rect height="2200" id="artboard" style="fill:white;opacity:1" width="3300" x="0" y="0"/>
  <line style="fill:none;stroke:black;opacity:1;stroke-width:0.5;" x1="263" x2="3036" y1="292" y2="292"/>
  <text style="stroke:none;fill:black;font-family:sans-serif;font-size:13;font-weight:bold;" transform="matrix(1 0 0 1 263 322)">Weight/Scale Variations</text>
  <text style="stroke:none;fill:black;font-family:sans-serif;font-size:13;text-anchor:middle;" transform="matrix(1 0 0 1 559.711 322)">Ultralight</text>
  <text style="stroke:none;fill:black;font-family:sans-serif;font-size:13;text-anchor:middle;" transform="matrix(1 0 0 1 856.422 322)">Thin</text>
  <text style="stroke:none;fill:black;font-family:sans-serif;font-size:13;text-anchor:middle;" transform="matrix(1 0 0 1 1153.13 322)">Light</text>
  <text style="stroke:none;fill:black;font-family:sans-serif;font-size:13;text-anchor:middle;" transform="matrix(1 0 0 1 1449.84 322)">Regular</text>
  <text style="stroke:none;fill:black;font-family:sans-serif;font-size:13;text-anchor:middle;" transform="matrix(1 0 0 1 1746.56 322)">Medium</text>
  <text style="stroke:none;fill:black;font-family:sans-serif;font-size:13;text-anchor:middle;" transform="matrix(1 0 0 1 2043.27 322)">Semibold</text>
  <text style="stroke:none;fill:black;font-family:sans-serif;font-size:13;text-anchor:middle;" transform="matrix(1 0 0 1 2339.98 322)">Bold</text>
  <text style="stroke:none;fill:black;font-family:sans-serif;font-size:13;text-anchor:middle;" transform="matrix(1 0 0 1 2636.69 322)">Heavy</text>
  <text style="stroke:none;fill:black;font-family:sans-serif;font-size:13;text-anchor:middle;" transform="matrix(1 0 0 1 2933.4 322)">Black</text>
  <line style="fill:none;stroke:black;opacity:1;stroke-width:0.5;" x1="263" x2="3036" y1="1903" y2="1903"/>
  <g transform="matrix(1 0 0 1 263 1933)">
   <path d="M9.24805 0.830078Q10.8691 0.830078 12.2949 0.214844Q13.7207-0.400391 14.8096-1.49414Q15.8984-2.58789 16.5186-4.01367Q17.1387-5.43945 17.1387-7.05078Q17.1387-8.66211 16.5186-10.0879Q15.8984-11.5137 14.8047-12.6074Q13.7109-13.7012 12.2852-14.3164Q10.8594-14.9316 9.23828-14.9316Q7.62695-14.9316 6.20117-14.3164Q4.77539-13.7012 3.69141-12.6074Q2.60742-11.5137 1.9873-10.0879Q1.36719-8.66211 1.36719-7.05078Q1.36719-5.43945 1.9873-4.01367Q2.60742-2.58789 3.69629-1.49414Q4.78516-0.400391 6.21094 0.214844Q7.63672 0.830078 9.24805 0.830078ZM9.24805-0.654297Q7.91992-0.654297 6.7627-1.14746Q5.60547-1.64062 4.73145-2.51953Q3.85742-3.39844 3.36426-4.56055Q2.87109-5.72266 2.87109-7.05078Q2.87109-8.37891 3.35938-9.54102Q3.84766-10.7031 4.72168-11.582Q5.5957-12.4609 6.75293-12.9541Q7.91016-13.4473 9.23828-13.4473Q10.5762-13.4473 11.7334-12.9541Q12.8906-12.4609 13.7695-11.582Q14.6484-10.7031 15.1465-9.54102Q15.6445-8.37891 15.6445-7.05078Q15.6445-5.72266 15.1514-4.56055Q14.6582-3.39844 13.7842-2.51953Q12.9102-1.64062 11.748-1.14746Q10.5859-0.654297 9.24805-0.654297ZM5.6543-7.05078Q5.6543-6.72852 5.85938-6.52832Q6.06445-6.32812 6.40625-6.32812L8.51562-6.32812L8.51562-4.20898Q8.51562-3.88672 8.71094-3.67676Q8.90625-3.4668 9.23828-3.4668Q9.56055-3.4668 9.77051-3.67676Q9.98047-3.88672 9.98047-4.20898L9.98047-6.32812L12.0898-6.32812Q12.4219-6.32812 12.627-6.52832Q12.832-6.72852 12.832-7.05078Q12.832-7.38281 12.627-7.58789Q12.4219-7.79297 12.0898-7.79297L9.98047-7.79297L9.98047-9.90234Q9.98047-10.2344 9.77051-10.4443Q9.56055-10.6543 9.23828-10.6543Q8.90625-10.6543 8.71094-10.4443Q8.51562-10.2344 8.51562-9.90234L8.51562-7.79297L6.40625-7.79297Q6.06445-7.79297 5.85938-7.58789Q5.6543-7.38281 5.6543-7.05078Z"/>
  </g>
  <g transform="matrix(1 0 0 1 281.867 1933)">
   <path d="M11.709 2.91016Q13.75 2.91016 15.5518 2.12891Q17.3535 1.34766 18.7305-0.0292969Q20.1074-1.40625 20.8887-3.20801Q21.6699-5.00977 21.6699-7.05078Q21.6699-9.0918 20.8887-10.8936Q20.1074-12.6953 18.7305-14.0723Q17.3535-15.4492 15.5469-16.2305Q13.7402-17.0117 11.6992-17.0117Q9.6582-17.0117 7.85645-16.2305Q6.05469-15.4492 4.68262-14.0723Q3.31055-12.6953 2.5293-10.8936Q1.74805-9.0918 1.74805-7.05078Q1.74805-5.00977 2.5293-3.20801Q3.31055-1.40625 4.6875-0.0292969Q6.06445 1.34766 7.86621 2.12891Q9.66797 2.91016 11.709 2.91016ZM11.709 1.25Q9.98047 1.25 8.47656 0.605469Q6.97266-0.0390625 5.83496-1.17676Q4.69727-2.31445 4.05762-3.81836Q3.41797-5.32227 3.41797-7.05078Q3.41797-8.7793 4.05762-10.2832Q4.69727-11.7871 5.83008-12.9297Q6.96289-14.0723 8.4668-14.7119Q9.9707-15.3516 11.6992-15.3516Q13.4277-15.3516 14.9316-14.7119Q16.4355-14.0723 17.5781-12.9297Q18.7207-11.7871 19.3652-10.2832Q20.0098-8.7793 20.0098-7.05078Q20.0098-5.32227 19.3701-3.81836Q18.7305-2.31445 17.5928-1.17676Q16.4551-0.0390625 14.9463 0.605469Q13.4375 1.25 11.709 1.25ZM7.17773-7.05078Q7.17773-6.69922 7.41211-6.47461Q7.64648-6.25 8.01758-6.25L10.8887-6.25L10.8887-3.36914Q10.8887-2.99805 11.1133-2.76855Q11.3379-2.53906 11.6895-2.53906Q12.0605-2.53906 12.29-2.76855Q12.5195-2.99805 12.5195-3.36914L12.5195-6.25L15.4004-6.25Q15.7715-6.25 16.001-6.47461Q16.2305-6.69922 16.2305-7.05078Q16.2305-7.42188 16.001-7.65137Q15.7715-7.88086 15.4004-7.88086L12.5195-7.88086L12.5195-10.752Q12.5195-11.1328 12.29-11.3623Q12.0605-11.5918 11.6895-11.5918Q11.3379-11.5918 11.1133-11.3574Q10.8887-11.123 10.8887-10.752L10.8887-7.88086L8.01758-7.88086Q7.63672-7.88086 7.40723-7.65137Q7.17773-7.42188 7.17773-7.05078Z"/>
  </g>
  <g transform="matrix(1 0 0 1 305.646 1933)">
   <path d="M14.9707 5.66406Q17.0605 5.66406 18.96 5.01465Q20.8594 4.36523 22.4512 3.19336Q24.043 2.02148 25.2197 0.429688Q26.3965-1.16211 27.0459-3.06641Q27.6953-4.9707 27.6953-7.05078Q27.6953-9.14062 27.0459-11.04Q26.3965-12.9395 25.2197-14.5312Q24.043-16.123 22.4512-17.2998Q20.8594-18.4766 18.9551-19.126Q17.0508-19.7754 14.9609-19.7754Q12.8711-19.7754 10.9717-19.126Q9.07227-18.4766 7.48535-17.2998Q5.89844-16.123 4.72168-14.5312Q3.54492-12.9395 2.90039-11.04Q2.25586-9.14062 2.25586-7.05078Q2.25586-4.9707 2.90527-3.06641Q3.55469-1.16211 4.72656 0.429688Q5.89844 2.02148 7.49023 3.19336Q9.08203 4.36523 10.9814 5.01465Q12.8809 5.66406 14.9707 5.66406ZM14.9707 3.84766Q13.1641 3.84766 11.5283 3.2959Q9.89258 2.74414 8.53516 1.74805Q7.17773 0.751953 6.17676-0.610352Q5.17578-1.97266 4.62891-3.6084Q4.08203-5.24414 4.08203-7.05078Q4.08203-8.86719 4.62891-10.5029Q5.17578-12.1387 6.17188-13.501Q7.16797-14.8633 8.52539-15.8594Q9.88281-16.8555 11.5186-17.4023Q13.1543-17.9492 14.9609-17.9492Q16.7773-17.9492 18.4131-17.4023Q20.0488-16.8555 21.4111-15.8594Q22.7734-14.8633 23.7695-13.501Q24.7656-12.1387 25.3174-10.5029Q25.8691-8.86719 25.8691-7.05078Q25.8789-5.24414 25.332-3.6084Q24.7852-1.97266 23.7842-0.610352Q22.7832 0.751953 21.4209 1.74805Q20.0586 2.74414 18.4229 3.2959Q16.7871 3.84766 14.9707 3.84766ZM9.19922-7.05078Q9.19922-6.66992 9.45801-6.4209Q9.7168-6.17188 10.1172-6.17188L14.0625-6.17188L14.0625-2.2168Q14.0625-1.81641 14.3115-1.55762Q14.5605-1.29883 14.9512-1.29883Q15.3516-1.29883 15.6104-1.55273Q15.8691-1.80664 15.8691-2.2168L15.8691-6.17188L19.8242-6.17188Q20.2246-6.17188 20.4785-6.4209Q20.7324-6.66992 20.7324-7.05078Q20.7324-7.46094 20.4785-7.71484Q20.2246-7.96875 19.8242-7.96875L15.8691-7.96875L15.8691-11.9141Q15.8691-12.3242 15.6104-12.583Q15.3516-12.8418 14.9512-12.8418Q14.5605-12.8418 14.3115-12.583Q14.0625-12.3242 14.0625-11.9141L14.0625-7.96875L10.1172-7.96875Q9.70703-7.96875 9.45312-7.71484Q9.19922-7.46094 9.19922-7.05078Z"/>
  </g>
  <text style="stroke:none;fill:black;font-family:sans-serif;font-size:13;font-weight:bold;" transform="matrix(1 0 0 1 263 1953)">Design Variations</text>
  <text style="stroke:none;fill:black;font-family:sans-serif;font-size:13;" transform="matrix(1 0 0 1 263 1971)">Symbols are supported in up to nine weights and three scales.</text>
  <text style="stroke:none;fill:black;font-family:sans-serif;font-size:13;" transform="matrix(1 0 0 1 263 1989)">For optimal layout with text and other symbols, vertically align</text>
  <text style="stroke:none;fill:black;font-family:sans-serif;font-size:13;" transform="matrix(1 0 0 1 263 2007)">symbols with the adjacent text.</text>
  <line style="fill:none;stroke:#00AEEF;stroke-width:0.5;opacity:1.0;" x1="776" x2="776" y1="1919" y2="1933"/>
  <g transform="matrix(1 0 0 1 776 1933)">
   <path d="M3.31055 0.15625Q3.70117 0.15625 3.91602-0.00976562Q4.13086-0.175781 4.26758-0.585938L5.52734-4.0332L11.2891-4.0332L12.5488-0.585938Q12.6855-0.175781 12.9004-0.00976562Q13.1152 0.15625 13.4961 0.15625Q13.8867 0.15625 14.1162-0.0585938Q14.3457-0.273438 14.3457-0.644531Q14.3457-0.869141 14.2383-1.17188L9.6582-13.3691Q9.48242-13.8184 9.17969-14.043Q8.87695-14.2676 8.4082-14.2676Q7.5-14.2676 7.17773-13.3789L2.59766-1.16211Q2.49023-0.859375 2.49023-0.634766Q2.49023-0.263672 2.70996-0.0537109Q2.92969 0.15625 3.31055 0.15625ZM6.00586-5.51758L8.37891-12.0898L8.42773-12.0898L10.8008-5.51758Z"/>
  </g>
  <line style="fill:none;stroke:#00AEEF;stroke-width:0.5;opacity:1.0;" x1="793.197" x2="793.197" y1="1919" y2="1933"/>
  <text style="stroke:none;fill:black;font-family:sans-serif;font-size:13;font-weight:bold;" transform="matrix(1 0 0 1 776 1953)">Margins</text>
  <text style="stroke:none;fill:black;font-family:sans-serif;font-size:13;" transform="matrix(1 0 0 1 776 1971)">Leading and trailing margins on the left and right side of each symbol</text>
  <text style="stroke:none;fill:black;font-family:sans-serif;font-size:13;" transform="matrix(1 0 0 1 776 1989)">can be adjusted by modifying the x-location of the margin guidelines.</text>
  <text style="stroke:none;fill:black;font-family:sans-serif;font-size:13;" transform="matrix(1 0 0 1 776 2007)">Modifications are automatically applied proportionally to all</text>
  <text style="stroke:none;fill:black;font-family:sans-serif;font-size:13;" transform="matrix(1 0 0 1 776 2025)">scales and weights.</text>
  <g transform="matrix(1 0 0 1 1289 1933)">
   <path d="M2.8418 1.86523L4.54102 3.57422Q5.18555 4.22852 5.90332 4.17969Q6.62109 4.13086 7.31445 3.35938L18.0078-8.42773L17.041-9.4043L6.42578 2.27539Q6.16211 2.57812 5.89355 2.61719Q5.625 2.65625 5.27344 2.30469L4.10156 1.14258Q3.75 0.791016 3.79395 0.522461Q3.83789 0.253906 4.14062-0.0195312L15.6152-10.8203L14.6387-11.7871L3.04688-0.898438Q2.30469-0.214844 2.25098 0.498047Q2.19727 1.21094 2.8418 1.86523ZM9.25781-16.3281Q8.94531-16.0254 8.90625-15.6348Q8.86719-15.2441 9.04297-14.9512Q9.21875-14.6777 9.55566-14.541Q9.89258-14.4043 10.3809-14.5215Q11.4746-14.7754 12.5977-14.7314Q13.7207-14.6875 14.7949-13.9844L14.209-12.5293Q13.9551-11.9043 14.0674-11.4404Q14.1797-10.9766 14.5801-10.5664L16.875-8.25195Q17.2363-7.88086 17.5781-7.82227Q17.9199-7.76367 18.3398-7.8418L19.4043-8.03711L20.0684-7.36328L20.0293-6.80664Q20-6.43555 20.1221-6.12305Q20.2441-5.81055 20.6055-5.44922L21.3672-4.70703Q21.7285-4.3457 22.1533-4.33105Q22.5781-4.31641 22.9297-4.66797L25.8398-7.58789Q26.1914-7.93945 26.1816-8.35449Q26.1719-8.76953 25.8105-9.13086L25.0391-9.89258Q24.6875-10.2539 24.3799-10.3857Q24.0723-10.5176 23.7109-10.4883L23.1348-10.4395L22.4902-11.0742L22.7344-12.1973Q22.832-12.6172 22.6953-12.9834Q22.5586-13.3496 22.1191-13.7891L19.9219-15.9766Q18.6719-17.2168 17.2607-17.8369Q15.8496-18.457 14.4189-18.4814Q12.9883-18.5059 11.665-17.959Q10.3418-17.4121 9.25781-16.3281ZM10.752-15.957Q11.6602-16.6211 12.7002-16.9043Q13.7402-17.1875 14.8047-17.085Q15.8691-16.9824 16.8701-16.5137Q17.8711-16.0449 18.7012-15.2051L21.1328-12.793Q21.3086-12.6172 21.3525-12.4512Q21.3965-12.2852 21.3379-12.0312L21.0156-10.5469L22.5195-9.0625L23.5059-9.12109Q23.6914-9.13086 23.7891-9.09668Q23.8867-9.0625 24.0332-8.91602L24.6094-8.33984L22.168-5.89844L21.5918-6.47461Q21.4453-6.62109 21.4062-6.71875Q21.3672-6.81641 21.377-7.01172L21.4453-7.98828L19.9512-9.47266L18.4277-9.21875Q18.1836-9.16992 18.042-9.2041Q17.9004-9.23828 17.7148-9.41406L15.7129-11.416Q15.5176-11.5918 15.4932-11.7529Q15.4688-11.9141 15.5859-12.1875L16.4648-14.2773Q15.293-15.3711 13.8281-15.791Q12.3633-16.2109 10.8398-15.7617Q10.7227-15.7324 10.6885-15.8057Q10.6543-15.8789 10.752-15.957Z"/>
  </g>
  <text style="stroke:none;fill:black;font-family:sans-serif;font-size:13;font-weight:bold;" transform="matrix(1 0 0 1 1289 1953)">Exporting</text>
  <text style="stroke:none;fill:black;font-family:sans-serif;font-size:13;" transform="matrix(1 0 0 1 1289 1971)">Symbols should be outlined when exporting to ensure the</text>
  <text style="stroke:none;fill:black;font-family:sans-serif;font-size:13;" transform="matrix(1 0 0 1 1289 1989)">design is preserved when submitting to Xcode.</text>
  <text id="template-version" style="stroke:none;fill:black;font-family:sans-serif;font-size:13;text-anchor:end;" transform="matrix(1 0 0 1 3036 1933)">Template v.3.0</text>
  <text style="stroke:none;fill:black;font-family:sans-serif;font-size:13;text-anchor:end;" transform="matrix(1 0 0 1 3036 1951)">Requires Xcode 13 or greater</text>
  <text id="descriptive-name" style="stroke:none;fill:black;font-family:sans-serif;font-size:13;text-anchor:end;" transform="matrix(1 0 0 1 3036 1969)">Symbol moniker: clash</text>
  <text style="stroke:none;fill:black;font-family:sans-serif;font-size:13;text-anchor:end;" transform="matrix(1 0 0 1 3036 1987)">Typeset at 100 points</text>
  <text style="stroke:none;fill:black;font-family:sans-serif;font-size:13;" transform="matrix(1 0 0 1 263 726)">Small</text>
  <text style="stroke:none;fill:black;font-family:sans-serif;font-size:13;" transform="matrix(1 0 0 1 263 1156)">Medium</text>
  <text style="stroke:none;fill:black;font-family:sans-serif;font-size:13;" transform="matrix(1 0 0 1 263 1586)">Large</text>
 </g>
 <g id="Guides">
  <g id="H-reference" style="fill:#27AAE1;stroke:none;" transform="matrix(1 0 0 1 339 696)">
   <path d="M0.976562 0L3.66211 0L29.3457-67.1387L30.0293-67.1387L30.0293-70.459L28.125-70.459ZM11.6699-24.4629L46.9727-24.4629L46.2402-26.709L12.4512-26.709ZM55.127 0L57.7637 0L30.6152-70.459L29.4434-70.459L29.4434-67.1387Z"/>
  </g>
  <line id="Baseline-S" style="fill:none;stroke:#27AAE1;opacity:1;stroke-width:0.5;" x1="263" x2="3036" y1="696" y2="696"/>
  <line id="Capline-S" style="fill:none;stroke:#27AAE1;opacity:1;stroke-width:0.5;" x1="263" x2="3036" y1="625.541" y2="625.541"/>
  <g id="H-reference" style="fill:#27AAE1;stroke:none;" transform="matrix(1 0 0 1 339 1126)">
   <path d="M0.976562 0L3.66211 0L29.3457-67.1387L30.0293-67.1387L30.0293-70.459L28.125-70.459ZM11.6699-24.4629L46.9727-24.4629L46.2402-26.709L12.4512-26.709ZM55.127 0L57.7637 0L30.6152-70.459L29.4434-70.459L29.4434-67.1387Z"/>
  </g>
  <line id="Baseline-M" style="fill:none;stroke:#27AAE1;opacity:1;stroke-width:0.5;" x1="263" x2="3036" y1="1126" y2="1126"/>
  <line id="Capline-M" style="fill:none;stroke:#27AAE1;opacity:1;stroke-width:0.5;" x1="263" x2="3036" y1="1055.54" y2="1055.54"/>
  <g id="H-reference" style="fill:#27AAE1;stroke:none;" transform="matrix(1 0 0 1 339 1556)">
   <path d="M0.976562 0L3.66211 0L29.3457-67.1387L30.0293-67.1387L30.0293-70.459L28.125-70.459ZM11.6699-24.4629L46.9727-24.4629L46.2402-26.709L12.4512-26.709ZM55.127 0L57.7637 0L30.6152-70.459L29.4434-70.459L29.4434-67.1387Z"/>
  </g>
  <line id="Baseline-L" style="fill:none;stroke:#27AAE1;opacity:1;stroke-width:0.5;" x1="263" x2="3036" y1="1556" y2="1556"/>
  <line id="Capline-L" style="fill:none;stroke:#27AAE1;opacity:1;stroke-width:0.5;" x1="263" x2="3036" y1="1485.54" y2="1485.54"/>
  <line id="left-margin-Ultralight-S" style="fill:none;stroke:#00AEEF;stroke-width:0.5;opacity:1.0;" x1="515.351" x2="515.351" y1="600.784" y2="720.121"/>
  <line id="right-margin-Ultralight-S" style="fill:none;stroke:#00AEEF;stroke-width:0.5;opacity:1.0;" x1="604.071" x2="604.071" y1="600.784" y2="720.121"/>
  <line id="left-margin-Regular-S" style="fill:none;stroke:#00AEEF;stroke-width:0.5;opacity:1.0;" x1="1401.75" x2="1401.75" y1="600.784" y2="720.121"/>
  <line id="right-margin-Regular-S" style="fill:none;stroke:#00AEEF;stroke-width:0.5;opacity:1.0;" x1="1497.94" x2="1497.94" y1="600.784" y2="720.121"/>
  <line id="left-margin-Black-S" style="fill:none;stroke:#00AEEF;stroke-width:0.5;opacity:1.0;" x1="2883.2" x2="2883.2" y1="600.784" y2="720.121"/>
  <line id="right-margin-Black-S" style="fill:none;stroke:#00AEEF;stroke-width:0.5;opacity:1.0;" x1="2983.6" x2="2983.6" y1="600.784" y2="720.121"/>
 </g>
 <g id="Symbols">
  <g id="Black-L" transform="matrix(1,0,0,1,2853.3999999999996,1440.77)">

  <path d="M51.18656 15.387248C53.594240000000006 14.957040000000001 55.37536 16.94208 56.892480000000006 18.48928 61.80576 23.99136 65.30032 30.550080000000005 68.96832 36.90496 80.9536 34.05968 93.61072000000001 34.43696 105.63376000000001 36.90496 108.90176 30.421760000000003 111.97360000000002 23.75728 116.37376 17.95344 117.4984 16.75328 118.71343999999999 14.972128000000001 120.53248000000002 15.092896 122.48720000000002 17.591040000000003 122.53248000000002 20.97232 123.36272 23.923360000000002 124.63824 28.76128 125.16656 33.73504 126.26096000000001 38.61072 131.46112000000002 69.47968 136.4424 100.42416 139.46896 131.59504 139.69536000000002 134.32736 139.97456 137.09712 139.59728 139.82944 138.85760000000002 140.90112 137.51408 140.92368 136.36688 141.15776000000002 132.88752 141.852 129.32512 141.67856 125.80799999999999 141.94272 117.536 142.93888 109.17344000000001 142.1616 100.89392000000001 142.99168 90.83328 143.12768000000003 80.77248 143.09744 70.71184 143.02944 58.168 141.98032 45.32976 143.32384 33.01984 140.27472 26.31776 139.9728 19.011840000000003 138.81040000000002 14.060720000000002 133.85936 8.739776 129.112 6.943488000000001 121.2552 8.536 114.4624 9.909632000000002 108.11504000000001 15.11736 103.028 21.16288 100.9752 23.23088 100.22048000000001 26.091359999999998 100.19024 27.35936 102.30352 27.940480000000004 104.35648000000002 25.857440000000004 105.52624000000002 24.491200000000003 106.56032 21.502560000000003 108.57536 18.2344 110.7416 16.94384 114.2888 15.736256000000001 118.44752000000001 16.67968 123.41376000000001 20.06848 126.31952000000001 23.82704 129.67808 29.148000000000003 130.07056 33.94816 130.35728 35.89552 108.032 38.76352 85.78976 41.79008 63.592800000000004 43.775040000000004 49.88656 45.68448000000001 36.150240000000004 48.650560000000006 22.617760000000004 49.3224 20.17232 49.6544 17.48544 51.18656 15.387248ZM64.06256 59.20016000000001C61.458560000000006 59.61520000000001 59.33776 61.743520000000004 58.7792 64.29456 58.02448000000001 67.62304 60.4624 71.26096 63.858720000000005 71.74400000000001 68.04 72.71008 72.21376000000001 68.46079999999999 71.308 64.31728000000001 70.79488 61.004 67.33808 58.5736 64.06256 59.20016000000001ZM108.65280000000001 59.381280000000004C104.03376000000002 60.973760000000006 103.27904000000001 68.09856 107.36207999999999 70.70992 111.15856000000002 73.61568 117.46064 70.76272 117.46816 65.89471999999999 118.07952 61.20768000000001 112.93968000000001 57.59248 108.65280000000001 59.381280000000004ZM86.24448000000001 76.4536C85.22544 77.34416 84.116 78.11392000000001 82.98384 78.86112000000001 81.96496 78.52912 80.94608 78.16688 79.94992 77.76688000000001L79.8592 80.06880000000001C82.31216 81.44992 84.97648000000001 80.77072 87.30112000000001 79.51776000000001 89.6256 80.77072 92.29744 81.42736000000001 94.75040000000001 80.06880000000001 94.72768 79.49520000000001 94.68992 78.34048000000001 94.66736 77.76688000000001 93.67104 78.16688 92.65216000000001 78.52912 91.63328000000001 78.8536 90.50112000000001 78.1216 89.39168000000001 77.34416 88.3728 76.4536 87.66336000000001 76.44608 86.95392000000001 76.44608 86.24448000000001 76.4536Z" class="hierarchical-1:primary "/></g>
  <g id="Regular-L" transform="matrix(1,0,0,1,1369.845,1440.77)">

  <path d="M51.18656 15.387248C53.594240000000006 14.957040000000001 55.37536 16.94208 56.892480000000006 18.48928 61.80576 23.99136 65.30032 30.550080000000005 68.96832 36.90496 80.9536 34.05968 93.61072000000001 34.43696 105.63376000000001 36.90496 108.90176 30.421760000000003 111.97360000000002 23.75728 116.37376 17.95344 117.4984 16.75328 118.71343999999999 14.972128000000001 120.53248000000002 15.092896 122.48720000000002 17.591040000000003 122.53248000000002 20.97232 123.36272 23.923360000000002 124.63824 28.76128 125.16656 33.73504 126.26096000000001 38.61072 131.46112000000002 69.47968 136.4424 100.42416 139.46896 131.59504 139.69536000000002 134.32736 139.97456 137.09712 139.59728 139.82944 138.85760000000002 140.90112 137.51408 140.92368 136.36688 141.15776000000002 132.88752 141.852 129.32512 141.67856 125.80799999999999 141.94272 117.536 142.93888 109.17344000000001 142.1616 100.89392000000001 142.99168 90.83328 143.12768000000003 80.77248 143.09744 70.71184 143.02944 58.168 141.98032 45.32976 143.32384 33.01984 140.27472 26.31776 139.9728 19.011840000000003 138.81040000000002 14.060720000000002 133.85936 8.739776 129.112 6.943488000000001 121.2552 8.536 114.4624 9.909632000000002 108.11504000000001 15.11736 103.028 21.16288 100.9752 23.23088 100.22048000000001 26.091359999999998 100.19024 27.35936 102.30352 27.940480000000004 104.35648000000002 25.857440000000004 105.52624000000002 24.491200000000003 106.56032 21.502560000000003 108.57536 18.2344 110.7416 16.94384 114.2888 15.736256000000001 118.44752000000001 16.67968 123.41376000000001 20.06848 126.31952000000001 23.82704 129.67808 29.148000000000003 130.07056 33.94816 130.35728 35.89552 108.032 38.76352 85.78976 41.79008 63.592800000000004 43.775040000000004 49.88656 45.68448000000001 36.150240000000004 48.650560000000006 22.617760000000004 49.3224 20.17232 49.6544 17.48544 51.18656 15.387248ZM64.06256 59.20016000000001C61.458560000000006 59.61520000000001 59.33776 61.743520000000004 58.7792 64.29456 58.02448000000001 67.62304 60.4624 71.26096 63.858720000000005 71.74400000000001 68.04 72.71008 72.21376000000001 68.46079999999999 71.308 64.31728000000001 70.79488 61.004 67.33808 58.5736 64.06256 59.20016000000001ZM108.65280000000001 59.381280000000004C104.03376000000002 60.973760000000006 103.27904000000001 68.09856 107.36207999999999 70.70992 111.15856000000002 73.61568 117.46064 70.76272 117.46816 65.89471999999999 118.07952 61.20768000000001 112.93968000000001 57.59248 108.65280000000001 59.381280000000004ZM86.24448000000001 76.4536C85.22544 77.34416 84.116 78.11392000000001 82.98384 78.86112000000001 81.96496 78.52912 80.94608 78.16688 79.94992 77.76688000000001L79.8592 80.06880000000001C82.31216 81.44992 84.97648000000001 80.77072 87.30112000000001 79.51776000000001 89.6256 80.77072 92.29744 81.42736000000001 94.75040000000001 80.06880000000001 94.72768 79.49520000000001 94.68992 78.34048000000001 94.66736 77.76688000000001 93.67104 78.16688 92.65216000000001 78.52912 91.63328000000001 78.8536 90.50112000000001 78.1216 89.39168000000001 77.34416 88.3728 76.4536 87.66336000000001 76.44608 86.95392000000001 76.44608 86.24448000000001 76.4536Z" class="hierarchical-1:primary "/></g>
  <g id="Ultralight-L" transform="matrix(1,0,0,1,479.711,1440.77)">

  <path d="M51.18656 15.387248C53.594240000000006 14.957040000000001 55.37536 16.94208 56.892480000000006 18.48928 61.80576 23.99136 65.30032 30.550080000000005 68.96832 36.90496 80.9536 34.05968 93.61072000000001 34.43696 105.63376000000001 36.90496 108.90176 30.421760000000003 111.97360000000002 23.75728 116.37376 17.95344 117.4984 16.75328 118.71343999999999 14.972128000000001 120.53248000000002 15.092896 122.48720000000002 17.591040000000003 122.53248000000002 20.97232 123.36272 23.923360000000002 124.63824 28.76128 125.16656 33.73504 126.26096000000001 38.61072 131.46112000000002 69.47968 136.4424 100.42416 139.46896 131.59504 139.69536000000002 134.32736 139.97456 137.09712 139.59728 139.82944 138.85760000000002 140.90112 137.51408 140.92368 136.36688 141.15776000000002 132.88752 141.852 129.32512 141.67856 125.80799999999999 141.94272 117.536 142.93888 109.17344000000001 142.1616 100.89392000000001 142.99168 90.83328 143.12768000000003 80.77248 143.09744 70.71184 143.02944 58.168 141.98032 45.32976 143.32384 33.01984 140.27472 26.31776 139.9728 19.011840000000003 138.81040000000002 14.060720000000002 133.85936 8.739776 129.112 6.943488000000001 121.2552 8.536 114.4624 9.909632000000002 108.11504000000001 15.11736 103.028 21.16288 100.9752 23.23088 100.22048000000001 26.091359999999998 100.19024 27.35936 102.30352 27.940480000000004 104.35648000000002 25.857440000000004 105.52624000000002 24.491200000000003 106.56032 21.502560000000003 108.57536 18.2344 110.7416 16.94384 114.2888 15.736256000000001 118.44752000000001 16.67968 123.41376000000001 20.06848 126.31952000000001 23.82704 129.67808 29.148000000000003 130.07056 33.94816 130.35728 35.89552 108.032 38.76352 85.78976 41.79008 63.592800000000004 43.775040000000004 49.88656 45.68448000000001 36.150240000000004 48.650560000000006 22.617760000000004 49.3224 20.17232 49.6544 17.48544 51.18656 15.387248ZM64.06256 59.20016000000001C61.458560000000006 59.61520000000001 59.33776 61.743520000000004 58.7792 64.29456 58.02448000000001 67.62304 60.4624 71.26096 63.858720000000005 71.74400000000001 68.04 72.71008 72.21376000000001 68.46079999999999 71.308 64.31728000000001 70.79488 61.004 67.33808 58.5736 64.06256 59.20016000000001ZM108.65280000000001 59.381280000000004C104.03376000000002 60.973760000000006 103.27904000000001 68.09856 107.36207999999999 70.70992 111.15856000000002 73.61568 117.46064 70.76272 117.46816 65.89471999999999 118.07952 61.20768000000001 112.93968000000001 57.59248 108.65280000000001 59.381280000000004ZM86.24448000000001 76.4536C85.22544 77.34416 84.116 78.11392000000001 82.98384 78.86112000000001 81.96496 78.52912 80.94608 78.16688 79.94992 77.76688000000001L79.8592 80.06880000000001C82.31216 81.44992 84.97648000000001 80.77072 87.30112000000001 79.51776000000001 89.6256 80.77072 92.29744 81.42736000000001 94.75040000000001 80.06880000000001 94.72768 79.49520000000001 94.68992 78.34048000000001 94.66736 77.76688000000001 93.67104 78.16688 92.65216000000001 78.52912 91.63328000000001 78.8536 90.50112000000001 78.1216 89.39168000000001 77.34416 88.3728 76.4536 87.66336000000001 76.44608 86.95392000000001 76.44608 86.24448000000001 76.4536Z" class="hierarchical-1:primary "/></g>
  <g id="Black-M" transform="matrix(1,0,0,1,2869.3999999999996,1026.77)">

  <path d="M40.949248 12.3097984C42.875392000000005 11.965632000000001 44.300288 13.553664000000001 45.513984 14.791424 49.444608 19.193088 52.240256 24.440064000000003 55.174656000000006 29.523968 64.76288 27.247743999999997 74.888576 27.549568 84.50700800000001 29.523968 87.12140799999999 24.337408 89.57888000000001 19.005824 93.099008 14.362752 93.99871999999999 13.402624000000001 94.97075199999999 11.9777024 96.42598400000001 12.0743168 97.98976 14.072832000000002 98.02598400000001 16.777856 98.690176 19.138688 99.710592 23.009024 100.13324800000001 26.988032 101.008768 30.888576 105.168896 55.583743999999996 109.15392 80.339328 111.57516799999999 105.276032 111.75628800000001 107.461888 111.979648 109.677696 111.677824 111.863552 111.08608000000001 112.720896 110.011264 112.73894399999999 109.093504 112.926208 106.310016 113.4816 103.460096 113.342848 100.6464 113.55417600000001 94.02879999999999 114.35110399999999 87.338752 113.72928 80.715136 114.393344 72.666624 114.50214400000002 64.61798399999999 114.477952 56.569472 114.423552 46.5344 113.58425600000001 36.263808 114.659072 26.415872 112.21977600000001 21.054208 111.97824000000001 15.209472000000002 111.04832 11.248576 107.087488 6.9918208 103.2896 5.554790400000001 97.00416 6.8288 91.56992000000001 7.9277056 86.492032 12.093888 82.4224 16.930304 80.78016 18.584704 80.176384 20.873088 80.152192 21.887487999999998 81.842816 22.352384 83.485184 20.685952000000004 84.42099200000001 19.59296 85.248256 17.202048 86.860288 14.58752 88.59328 13.555072000000001 91.43104 12.5890048 94.75801600000001 13.343744 98.731008 16.054784 101.05561600000001 19.061632 103.742464 23.3184 104.056448 27.158528 104.28582399999999 28.716416 86.4256 31.010816000000002 68.631808 33.432064000000004 50.87424 35.020032 39.909248 36.547584 28.920192000000004 38.920448 18.094208000000002 39.45792 16.137856 39.72352 13.988352 40.949248 12.3097984ZM51.250048 47.360128C49.166848 47.69216 47.47020800000001 49.394816 47.023360000000004 51.435648 46.41958400000001 54.098432 48.36992 57.008768 51.08697600000001 57.3952 54.432 58.16806400000001 57.771008 54.76864 57.046400000000006 51.453824000000004 56.635904000000004 48.8032 53.870464000000005 46.85888 51.250048 47.360128ZM86.92224 47.505024000000006C83.22700800000001 48.779008000000005 82.62323200000002 54.478848 85.889664 56.567936 88.926848 58.892544 93.96851199999999 56.610176 93.97452799999999 52.715776 94.463616 48.96614400000001 90.351744 46.073984 86.92224 47.505024000000006ZM68.995584 61.162879999999994C68.180352 61.875328 67.2928 62.491136 66.387072 63.088896000000005 65.571968 62.823296 64.756864 62.533504 63.959936 62.21350400000001L63.88736 64.05504C65.849728 65.159936 67.981184 64.616576 69.840896 63.614208 71.70048 64.616576 73.837952 65.141888 75.80032 64.05504 75.782144 63.596160000000005 75.751936 62.672384 75.733888 62.21350400000001 74.93683200000001 62.533504 74.121728 62.823296 73.306624 63.082879999999996 72.400896 62.49728 71.513344 61.875328 70.69824 61.162879999999994 70.130688 61.156864 69.563136 61.156864 68.995584 61.162879999999994Z" class="hierarchical-1:primary "/></g>
  <g id="Regular-M" transform="matrix(1,0,0,1,1385.845,1026.77)">

  <path d="M40.949248 12.3097984C42.875392000000005 11.965632000000001 44.300288 13.553664000000001 45.513984 14.791424 49.444608 19.193088 52.240256 24.440064000000003 55.174656000000006 29.523968 64.76288 27.247743999999997 74.888576 27.549568 84.50700800000001 29.523968 87.12140799999999 24.337408 89.57888000000001 19.005824 93.099008 14.362752 93.99871999999999 13.402624000000001 94.97075199999999 11.9777024 96.42598400000001 12.0743168 97.98976 14.072832000000002 98.02598400000001 16.777856 98.690176 19.138688 99.710592 23.009024 100.13324800000001 26.988032 101.008768 30.888576 105.168896 55.583743999999996 109.15392 80.339328 111.57516799999999 105.276032 111.75628800000001 107.461888 111.979648 109.677696 111.677824 111.863552 111.08608000000001 112.720896 110.011264 112.73894399999999 109.093504 112.926208 106.310016 113.4816 103.460096 113.342848 100.6464 113.55417600000001 94.02879999999999 114.35110399999999 87.338752 113.72928 80.715136 114.393344 72.666624 114.50214400000002 64.61798399999999 114.477952 56.569472 114.423552 46.5344 113.58425600000001 36.263808 114.659072 26.415872 112.21977600000001 21.054208 111.97824000000001 15.209472000000002 111.04832 11.248576 107.087488 6.9918208 103.2896 5.554790400000001 97.00416 6.8288 91.56992000000001 7.9277056 86.492032 12.093888 82.4224 16.930304 80.78016 18.584704 80.176384 20.873088 80.152192 21.887487999999998 81.842816 22.352384 83.485184 20.685952000000004 84.42099200000001 19.59296 85.248256 17.202048 86.860288 14.58752 88.59328 13.555072000000001 91.43104 12.5890048 94.75801600000001 13.343744 98.731008 16.054784 101.05561600000001 19.061632 103.742464 23.3184 104.056448 27.158528 104.28582399999999 28.716416 86.4256 31.010816000000002 68.631808 33.432064000000004 50.87424 35.020032 39.909248 36.547584 28.920192000000004 38.920448 18.094208000000002 39.45792 16.137856 39.72352 13.988352 40.949248 12.3097984ZM51.250048 47.360128C49.166848 47.69216 47.47020800000001 49.394816 47.023360000000004 51.435648 46.41958400000001 54.098432 48.36992 57.008768 51.08697600000001 57.3952 54.432 58.16806400000001 57.771008 54.76864 57.046400000000006 51.453824000000004 56.635904000000004 48.8032 53.870464000000005 46.85888 51.250048 47.360128ZM86.92224 47.505024000000006C83.22700800000001 48.779008000000005 82.62323200000002 54.478848 85.889664 56.567936 88.926848 58.892544 93.96851199999999 56.610176 93.97452799999999 52.715776 94.463616 48.96614400000001 90.351744 46.073984 86.92224 47.505024000000006ZM68.995584 61.162879999999994C68.180352 61.875328 67.2928 62.491136 66.387072 63.088896000000005 65.571968 62.823296 64.756864 62.533504 63.959936 62.21350400000001L63.88736 64.05504C65.849728 65.159936 67.981184 64.616576 69.840896 63.614208 71.70048 64.616576 73.837952 65.141888 75.80032 64.05504 75.782144 63.596160000000005 75.751936 62.672384 75.733888 62.21350400000001 74.93683200000001 62.533504 74.121728 62.823296 73.306624 63.082879999999996 72.400896 62.49728 71.513344 61.875328 70.69824 61.162879999999994 70.130688 61.156864 69.563136 61.156864 68.995584 61.162879999999994Z" class="hierarchical-1:primary "/></g>
  <g id="Ultralight-M" transform="matrix(1,0,0,1,495.711,1026.77)">

  <path d="M40.949248 12.3097984C42.875392000000005 11.965632000000001 44.300288 13.553664000000001 45.513984 14.791424 49.444608 19.193088 52.240256 24.440064000000003 55.174656000000006 29.523968 64.76288 27.247743999999997 74.888576 27.549568 84.50700800000001 29.523968 87.12140799999999 24.337408 89.57888000000001 19.005824 93.099008 14.362752 93.99871999999999 13.402624000000001 94.97075199999999 11.9777024 96.42598400000001 12.0743168 97.98976 14.072832000000002 98.02598400000001 16.777856 98.690176 19.138688 99.710592 23.009024 100.13324800000001 26.988032 101.008768 30.888576 105.168896 55.583743999999996 109.15392 80.339328 111.57516799999999 105.276032 111.75628800000001 107.461888 111.979648 109.677696 111.677824 111.863552 111.08608000000001 112.720896 110.011264 112.73894399999999 109.093504 112.926208 106.310016 113.4816 103.460096 113.342848 100.6464 113.55417600000001 94.02879999999999 114.35110399999999 87.338752 113.72928 80.715136 114.393344 72.666624 114.50214400000002 64.61798399999999 114.477952 56.569472 114.423552 46.5344 113.58425600000001 36.263808 114.659072 26.415872 112.21977600000001 21.054208 111.97824000000001 15.209472000000002 111.04832 11.248576 107.087488 6.9918208 103.2896 5.554790400000001 97.00416 6.8288 91.56992000000001 7.9277056 86.492032 12.093888 82.4224 16.930304 80.78016 18.584704 80.176384 20.873088 80.152192 21.887487999999998 81.842816 22.352384 83.485184 20.685952000000004 84.42099200000001 19.59296 85.248256 17.202048 86.860288 14.58752 88.59328 13.555072000000001 91.43104 12.5890048 94.75801600000001 13.343744 98.731008 16.054784 101.05561600000001 19.061632 103.742464 23.3184 104.056448 27.158528 104.28582399999999 28.716416 86.4256 31.010816000000002 68.631808 33.432064000000004 50.87424 35.020032 39.909248 36.547584 28.920192000000004 38.920448 18.094208000000002 39.45792 16.137856 39.72352 13.988352 40.949248 12.3097984ZM51.250048 47.360128C49.166848 47.69216 47.47020800000001 49.394816 47.023360000000004 51.435648 46.41958400000001 54.098432 48.36992 57.008768 51.08697600000001 57.3952 54.432 58.16806400000001 57.771008 54.76864 57.046400000000006 51.453824000000004 56.635904000000004 48.8032 53.870464000000005 46.85888 51.250048 47.360128ZM86.92224 47.505024000000006C83.22700800000001 48.779008000000005 82.62323200000002 54.478848 85.889664 56.567936 88.926848 58.892544 93.96851199999999 56.610176 93.97452799999999 52.715776 94.463616 48.96614400000001 90.351744 46.073984 86.92224 47.505024000000006ZM68.995584 61.162879999999994C68.180352 61.875328 67.2928 62.491136 66.387072 63.088896000000005 65.571968 62.823296 64.756864 62.533504 63.959936 62.21350400000001L63.88736 64.05504C65.849728 65.159936 67.981184 64.616576 69.840896 63.614208 71.70048 64.616576 73.837952 65.141888 75.80032 64.05504 75.782144 63.596160000000005 75.751936 62.672384 75.733888 62.21350400000001 74.93683200000001 62.533504 74.121728 62.823296 73.306624 63.082879999999996 72.400896 62.49728 71.513344 61.875328 70.69824 61.162879999999994 70.130688 61.156864 69.563136 61.156864 68.995584 61.162879999999994Z" class="hierarchical-1:primary "/></g>
  <g id="Black-S" transform="matrix(1,0,0,1,2885.3999999999996,612.7705000000001)">

  <path d="M30.711935999999998 9.232348799999999C32.156544 8.974224 33.225215999999996 10.165248 34.135488 11.093568 37.083456 14.394816 39.180192 18.330048 41.380992 22.142975999999997 48.57216 20.435807999999998 56.166432 20.662176 63.380256 22.142975999999997 65.341056 18.253056 67.18416 14.254368 69.82425599999999 10.772064 70.49904 10.051968 71.22806399999999 8.9832768 72.319488 9.055737599999999 73.49232 10.554624 73.51948800000001 12.583391999999998 74.01763199999999 14.354016 74.782944 17.256767999999997 75.099936 20.241024 75.756576 23.166431999999997 78.876672 41.687808 81.86543999999999 60.254495999999996 83.68137599999999 78.95702399999999 83.817216 80.59641599999999 83.984736 82.25827199999999 83.758368 83.89766399999999 83.31456 84.54067199999999 82.50844799999999 84.55420799999999 81.820128 84.694656 79.732512 85.1112 77.59507199999999 85.00713599999999 75.48479999999999 85.165632 70.52159999999999 85.76332799999999 65.504064 85.29696 60.536352 85.795008 54.499968 85.876608 48.463488 85.858464 42.42710399999999 85.817664 34.9008 85.188192 27.197855999999998 85.994304 19.811904 84.164832 15.790655999999998 83.98368 11.407104 83.28624 8.436432 80.31561599999999 5.2438656 77.46719999999999 4.1660928 72.75312 5.1216 68.67744 5.9457792000000005 64.869024 9.070416 61.81679999999999 12.697728 60.585119999999996 13.938528 60.132287999999996 15.654815999999999 60.114143999999996 16.415616 61.382112 16.764288 62.613888 15.514464 63.315744 14.69472 63.936192 12.901536 65.145216 10.940639999999998 66.44496 10.166304 68.57328 9.4417536 71.068512 10.007807999999999 74.048256 12.041087999999998 75.791712 14.296223999999999 77.806848 17.4888 78.04233599999999 20.368896 78.214368 21.537312 64.8192 23.258112 51.473856 25.074047999999998 38.15568 26.265024 29.931935999999997 27.410688 21.690144 29.190336 13.570656 29.593439999999998 12.103392 29.79264 10.491264 30.711935999999998 9.232348799999999ZM38.437535999999994 35.520096C36.875136 35.76912 35.602656 37.046112 35.26752 38.576736 34.814688000000004 40.573824 36.27744 42.756575999999995 38.315232 43.0464 40.824 43.626048000000004 43.328255999999996 41.07648 42.784800000000004 38.590368000000005 42.476928 36.602399999999996 40.402848 35.14416 38.437535999999994 35.520096ZM65.19168 35.628768C62.420256 36.584256 61.967424 40.859136 64.41724799999999 42.425951999999995 66.695136 44.169408 70.476384 42.457632 70.48089599999999 39.536832 70.847712 36.724608 67.763808 34.555488 65.19168 35.628768ZM51.746688 45.872159999999994C51.135264 46.406496 50.46959999999999 46.868351999999994 49.790304 47.316672000000004 49.178976 47.117472 48.567648 46.900128 47.969952 46.660128L47.91552 48.04128C49.38729599999999 48.869952 50.985888 48.46243199999999 52.380672 47.710656 53.77536 48.46243199999999 55.378463999999994 48.856415999999996 56.85024 48.04128 56.836608 47.69712 56.81395199999999 47.004288 56.800416 46.660128 56.202624 46.900128 55.591296 47.117472 54.979968 47.31215999999999 54.300672 46.87296 53.635008 46.406496 53.02367999999999 45.872159999999994 52.598016 45.867647999999996 52.172352000000004 45.867647999999996 51.746688 45.872159999999994Z" class="hierarchical-1:primary "/></g>
  <g id="Regular-S" transform="matrix(1,0,0,1,1401.845,612.7705000000001)">

  <path d="M30.711935999999998 9.232348799999999C32.156544 8.974224 33.225215999999996 10.165248 34.135488 11.093568 37.083456 14.394816 39.180192 18.330048 41.380992 22.142975999999997 48.57216 20.435807999999998 56.166432 20.662176 63.380256 22.142975999999997 65.341056 18.253056 67.18416 14.254368 69.82425599999999 10.772064 70.49904 10.051968 71.22806399999999 8.9832768 72.319488 9.055737599999999 73.49232 10.554624 73.51948800000001 12.583391999999998 74.01763199999999 14.354016 74.782944 17.256767999999997 75.099936 20.241024 75.756576 23.166431999999997 78.876672 41.687808 81.86543999999999 60.254495999999996 83.68137599999999 78.95702399999999 83.817216 80.59641599999999 83.984736 82.25827199999999 83.758368 83.89766399999999 83.31456 84.54067199999999 82.50844799999999 84.55420799999999 81.820128 84.694656 79.732512 85.1112 77.59507199999999 85.00713599999999 75.48479999999999 85.165632 70.52159999999999 85.76332799999999 65.504064 85.29696 60.536352 85.795008 54.499968 85.876608 48.463488 85.858464 42.42710399999999 85.817664 34.9008 85.188192 27.197855999999998 85.994304 19.811904 84.164832 15.790655999999998 83.98368 11.407104 83.28624 8.436432 80.31561599999999 5.2438656 77.46719999999999 4.1660928 72.75312 5.1216 68.67744 5.9457792000000005 64.869024 9.070416 61.81679999999999 12.697728 60.585119999999996 13.938528 60.132287999999996 15.654815999999999 60.114143999999996 16.415616 61.382112 16.764288 62.613888 15.514464 63.315744 14.69472 63.936192 12.901536 65.145216 10.940639999999998 66.44496 10.166304 68.57328 9.4417536 71.068512 10.007807999999999 74.048256 12.041087999999998 75.791712 14.296223999999999 77.806848 17.4888 78.04233599999999 20.368896 78.214368 21.537312 64.8192 23.258112 51.473856 25.074047999999998 38.15568 26.265024 29.931935999999997 27.410688 21.690144 29.190336 13.570656 29.593439999999998 12.103392 29.79264 10.491264 30.711935999999998 9.232348799999999ZM38.437535999999994 35.520096C36.875136 35.76912 35.602656 37.046112 35.26752 38.576736 34.814688000000004 40.573824 36.27744 42.756575999999995 38.315232 43.0464 40.824 43.626048000000004 43.328255999999996 41.07648 42.784800000000004 38.590368000000005 42.476928 36.602399999999996 40.402848 35.14416 38.437535999999994 35.520096ZM65.19168 35.628768C62.420256 36.584256 61.967424 40.859136 64.41724799999999 42.425951999999995 66.695136 44.169408 70.476384 42.457632 70.48089599999999 39.536832 70.847712 36.724608 67.763808 34.555488 65.19168 35.628768ZM51.746688 45.872159999999994C51.135264 46.406496 50.46959999999999 46.868351999999994 49.790304 47.316672000000004 49.178976 47.117472 48.567648 46.900128 47.969952 46.660128L47.91552 48.04128C49.38729599999999 48.869952 50.985888 48.46243199999999 52.380672 47.710656 53.77536 48.46243199999999 55.378463999999994 48.856415999999996 56.85024 48.04128 56.836608 47.69712 56.81395199999999 47.004288 56.800416 46.660128 56.202624 46.900128 55.591296 47.117472 54.979968 47.31215999999999 54.300672 46.87296 53.635008 46.406496 53.02367999999999 45.872159999999994 52.598016 45.867647999999996 52.172352000000004 45.867647999999996 51.746688 45.872159999999994Z" class="hierarchical-1:primary "/></g>
  <g id="Ultralight-S" transform="matrix(1,0,0,1,511.711,612.7705000000001)">

  <path d="M30.711935999999998 9.232348799999999C32.156544 8.974224 33.225215999999996 10.165248 34.135488 11.093568 37.083456 14.394816 39.180192 18.330048 41.380992 22.142975999999997 48.57216 20.435807999999998 56.166432 20.662176 63.380256 22.142975999999997 65.341056 18.253056 67.18416 14.254368 69.82425599999999 10.772064 70.49904 10.051968 71.22806399999999 8.9832768 72.319488 9.055737599999999 73.49232 10.554624 73.51948800000001 12.583391999999998 74.01763199999999 14.354016 74.782944 17.256767999999997 75.099936 20.241024 75.756576 23.166431999999997 78.876672 41.687808 81.86543999999999 60.254495999999996 83.68137599999999 78.95702399999999 83.817216 80.59641599999999 83.984736 82.25827199999999 83.758368 83.89766399999999 83.31456 84.54067199999999 82.50844799999999 84.55420799999999 81.820128 84.694656 79.732512 85.1112 77.59507199999999 85.00713599999999 75.48479999999999 85.165632 70.52159999999999 85.76332799999999 65.504064 85.29696 60.536352 85.795008 54.499968 85.876608 48.463488 85.858464 42.42710399999999 85.817664 34.9008 85.188192 27.197855999999998 85.994304 19.811904 84.164832 15.790655999999998 83.98368 11.407104 83.28624 8.436432 80.31561599999999 5.2438656 77.46719999999999 4.1660928 72.75312 5.1216 68.67744 5.9457792000000005 64.869024 9.070416 61.81679999999999 12.697728 60.585119999999996 13.938528 60.132287999999996 15.654815999999999 60.114143999999996 16.415616 61.382112 16.764288 62.613888 15.514464 63.315744 14.69472 63.936192 12.901536 65.145216 10.940639999999998 66.44496 10.166304 68.57328 9.4417536 71.068512 10.007807999999999 74.048256 12.041087999999998 75.791712 14.296223999999999 77.806848 17.4888 78.04233599999999 20.368896 78.214368 21.537312 64.8192 23.258112 51.473856 25.074047999999998 38.15568 26.265024 29.931935999999997 27.410688 21.690144 29.190336 13.570656 29.593439999999998 12.103392 29.79264 10.491264 30.711935999999998 9.232348799999999ZM38.437535999999994 35.520096C36.875136 35.76912 35.602656 37.046112 35.26752 38.576736 34.814688000000004 40.573824 36.27744 42.756575999999995 38.315232 43.0464 40.824 43.626048000000004 43.328255999999996 41.07648 42.784800000000004 38.590368000000005 42.476928 36.602399999999996 40.402848 35.14416 38.437535999999994 35.520096ZM65.19168 35.628768C62.420256 36.584256 61.967424 40.859136 64.41724799999999 42.425951999999995 66.695136 44.169408 70.476384 42.457632 70.48089599999999 39.536832 70.847712 36.724608 67.763808 34.555488 65.19168 35.628768ZM51.746688 45.872159999999994C51.135264 46.406496 50.46959999999999 46.868351999999994 49.790304 47.316672000000004 49.178976 47.117472 48.567648 46.900128 47.969952 46.660128L47.91552 48.04128C49.38729599999999 48.869952 50.985888 48.46243199999999 52.380672 47.710656 53.77536 48.46243199999999 55.378463999999994 48.856415999999996 56.85024 48.04128 56.836608 47.69712 56.81395199999999 47.004288 56.800416 46.660128 56.202624 46.900128 55.591296 47.117472 54.979968 47.31215999999999 54.300672 46.87296 53.635008 46.406496 53.02367999999999 45.872159999999994 52.598016 45.867647999999996 52.172352000000004 45.867647999999996 51.746688 45.872159999999994Z" class="hierarchical-1:primary "/></g>
 </g>
</svg>